<svg aria-roledescription="sequence" role="graphics-document document" style="overflow: hidden; max-width: 100%;" xmlns="http://www.w3.org/2000/svg" width="100%" id="graph-div" height="100%" class="visual-editor ve-actor-no-drag ve-message-no-drag" xmlns:xlink="http://www.w3.org/1999/xlink" xmlns:ev="http://www.w3.org/2001/xml-events"><style>@import url("https://cdnjs.cloudflare.com/ajax/libs/font-awesome/6.2.0/css/all.min.css");'</style><defs><symbol height="24" width="24" id="computer"><path d="M2 2v13h20v-13h-20zm18 11h-16v-9h16v9zm-10.228 6l.466-1h3.524l.467 1h-4.457zm14.228 3h-24l2-6h2.104l-1.33 4h18.45l-1.297-4h2.073l2 6zm-5-10h-14v-7h14v7z" transform="scale(.5)"></path></symbol></defs><defs><symbol clip-rule="evenodd" fill-rule="evenodd" id="database"><path d="M12.258.001l.256.004.255.005.253.008.251.01.249.012.247.015.246.016.242.019.241.02.239.023.236.024.233.027.231.028.229.031.225.032.223.034.22.036.217.038.214.04.211.041.208.043.205.045.201.046.198.048.194.05.191.051.187.053.183.054.18.056.175.057.172.059.168.06.163.061.16.063.155.064.15.066.074.033.073.033.071.034.07.034.069.035.068.035.067.035.066.035.064.036.064.036.062.036.06.036.06.037.058.037.058.037.055.038.055.038.053.038.052.038.051.039.05.039.048.039.047.039.045.04.044.04.043.04.041.04.04.041.039.041.037.041.036.041.034.041.033.042.032.042.03.042.029.042.027.042.026.043.024.043.023.043.021.043.02.043.018.044.017.043.015.044.013.044.012.044.011.045.009.044.007.045.006.045.004.045.002.045.001.045v17l-.001.045-.002.045-.004.045-.006.045-.007.045-.009.044-.011.045-.012.044-.013.044-.015.044-.017.043-.018.044-.02.043-.021.043-.023.043-.024.043-.026.043-.027.042-.029.042-.03.042-.032.042-.033.042-.034.041-.036.041-.037.041-.039.041-.04.041-.041.04-.043.04-.044.04-.045.04-.047.039-.048.039-.05.039-.051.039-.052.038-.053.038-.055.038-.055.038-.058.037-.058.037-.06.037-.06.036-.062.036-.064.036-.064.036-.066.035-.067.035-.068.035-.069.035-.07.034-.071.034-.073.033-.074.033-.15.066-.155.064-.16.063-.163.061-.168.06-.172.059-.175.057-.18.056-.183.054-.187.053-.191.051-.194.05-.198.048-.201.046-.205.045-.208.043-.211.041-.214.04-.217.038-.22.036-.223.034-.225.032-.229.031-.231.028-.233.027-.236.024-.239.023-.241.02-.242.019-.246.016-.247.015-.249.012-.251.01-.253.008-.255.005-.256.004-.258.001-.258-.001-.256-.004-.255-.005-.253-.008-.251-.01-.249-.012-.247-.015-.245-.016-.243-.019-.241-.02-.238-.023-.236-.024-.234-.027-.231-.028-.228-.031-.226-.032-.223-.034-.22-.036-.217-.038-.214-.04-.211-.041-.208-.043-.204-.045-.201-.046-.198-.048-.195-.05-.19-.051-.187-.053-.184-.054-.179-.056-.176-.057-.172-.059-.167-.06-.164-.061-.159-.063-.155-.064-.151-.066-.074-.033-.072-.033-.072-.034-.07-.034-.069-.035-.068-.035-.067-.035-.066-.035-.064-.036-.063-.036-.062-.036-.061-.036-.06-.037-.058-.037-.057-.037-.056-.038-.055-.038-.053-.038-.052-.038-.051-.039-.049-.039-.049-.039-.046-.039-.046-.04-.044-.04-.043-.04-.041-.04-.04-.041-.039-.041-.037-.041-.036-.041-.034-.041-.033-.042-.032-.042-.03-.042-.029-.042-.027-.042-.026-.043-.024-.043-.023-.043-.021-.043-.02-.043-.018-.044-.017-.043-.015-.044-.013-.044-.012-.044-.011-.045-.009-.044-.007-.045-.006-.045-.004-.045-.002-.045-.001-.045v-17l.001-.045.002-.045.004-.045.006-.045.007-.045.009-.044.011-.045.012-.044.013-.044.015-.044.017-.043.018-.044.02-.043.021-.043.023-.043.024-.043.026-.043.027-.042.029-.042.03-.042.032-.042.033-.042.034-.041.036-.041.037-.041.039-.041.04-.041.041-.04.043-.04.044-.04.046-.04.046-.039.049-.039.049-.039.051-.039.052-.038.053-.038.055-.038.056-.038.057-.037.058-.037.06-.037.061-.036.062-.036.063-.036.064-.036.066-.035.067-.035.068-.035.069-.035.07-.034.072-.034.072-.033.074-.033.151-.066.155-.064.159-.063.164-.061.167-.06.172-.059.176-.057.179-.056.184-.054.187-.053.19-.051.195-.05.198-.048.201-.046.204-.045.208-.043.211-.041.214-.04.217-.038.22-.036.223-.034.226-.032.228-.031.231-.028.234-.027.236-.024.238-.023.241-.02.243-.019.245-.016.247-.015.249-.012.251-.01.253-.008.255-.005.256-.004.258-.001.258.001zm-9.258 20.499v.01l.001.021.003.021.004.022.005.021.006.022.007.022.009.023.01.022.011.023.012.023.013.023.015.023.016.024.017.023.018.024.019.024.021.024.022.025.023.024.024.025.052.049.056.05.061.051.066.051.07.051.075.051.079.052.084.052.088.052.092.052.097.052.102.051.105.052.11.052.114.051.119.051.123.051.127.05.131.05.135.05.139.048.144.049.147.047.152.047.155.047.16.045.163.045.167.043.171.043.176.041.178.041.183.039.187.039.19.037.194.035.197.035.202.033.204.031.209.03.212.029.216.027.219.025.222.024.226.021.23.02.233.018.236.016.24.015.243.012.246.01.249.008.253.005.256.004.259.001.26-.001.257-.004.254-.005.25-.008.247-.011.244-.012.241-.014.237-.016.233-.018.231-.021.226-.021.224-.024.22-.026.216-.027.212-.028.21-.031.205-.031.202-.034.198-.034.194-.036.191-.037.187-.039.183-.04.179-.04.175-.042.172-.043.168-.044.163-.045.16-.046.155-.046.152-.047.148-.048.143-.049.139-.049.136-.05.131-.05.126-.05.123-.051.118-.052.114-.051.11-.052.106-.052.101-.052.096-.052.092-.052.088-.053.083-.051.079-.052.074-.052.07-.051.065-.051.06-.051.056-.05.051-.05.023-.024.023-.025.021-.024.02-.024.019-.024.018-.024.017-.024.015-.023.014-.024.013-.023.012-.023.01-.023.01-.022.008-.022.006-.022.006-.022.004-.022.004-.021.001-.021.001-.021v-4.127l-.077.055-.08.053-.083.054-.085.053-.087.052-.09.052-.093.051-.095.05-.097.05-.1.049-.102.049-.105.048-.106.047-.109.047-.111.046-.114.045-.115.045-.118.044-.12.043-.122.042-.124.042-.126.041-.128.04-.13.04-.132.038-.134.038-.135.037-.138.037-.139.035-.142.035-.143.034-.144.033-.147.032-.148.031-.15.03-.151.03-.153.029-.154.027-.156.027-.158.026-.159.025-.161.024-.162.023-.163.022-.165.021-.166.02-.167.019-.169.018-.169.017-.171.016-.173.015-.173.014-.175.013-.175.012-.177.011-.178.01-.179.008-.179.008-.181.006-.182.005-.182.004-.184.003-.184.002h-.37l-.184-.002-.184-.003-.182-.004-.182-.005-.181-.006-.179-.008-.179-.008-.178-.01-.176-.011-.176-.012-.175-.013-.173-.014-.172-.015-.171-.016-.17-.017-.169-.018-.167-.019-.166-.02-.165-.021-.163-.022-.162-.023-.161-.024-.159-.025-.157-.026-.156-.027-.155-.027-.153-.029-.151-.03-.15-.03-.148-.031-.146-.032-.145-.033-.143-.034-.141-.035-.14-.035-.137-.037-.136-.037-.134-.038-.132-.038-.13-.04-.128-.04-.126-.041-.124-.042-.122-.042-.12-.044-.117-.043-.116-.045-.113-.045-.112-.046-.109-.047-.106-.047-.105-.048-.102-.049-.1-.049-.097-.05-.095-.05-.093-.052-.09-.051-.087-.052-.085-.053-.083-.054-.08-.054-.077-.054v4.127zm0-5.654v.011l.001.021.003.021.004.021.005.022.006.022.007.022.009.022.01.022.011.023.012.023.013.023.015.024.016.023.017.024.018.024.019.024.021.024.022.024.023.025.024.024.052.05.056.05.061.05.066.051.07.051.075.052.079.051.084.052.088.052.092.052.097.052.102.052.105.052.11.051.114.051.119.052.123.05.127.051.131.05.135.049.139.049.144.048.147.048.152.047.155.046.16.045.163.045.167.044.171.042.176.042.178.04.183.04.187.038.19.037.194.036.197.034.202.033.204.032.209.03.212.028.216.027.219.025.222.024.226.022.23.02.233.018.236.016.24.014.243.012.246.01.249.008.253.006.256.003.259.001.26-.001.257-.003.254-.006.25-.008.247-.01.244-.012.241-.015.237-.016.233-.018.231-.02.226-.022.224-.024.22-.025.216-.027.212-.029.21-.03.205-.032.202-.033.198-.035.194-.036.191-.037.187-.039.183-.039.179-.041.175-.042.172-.043.168-.044.163-.045.16-.045.155-.047.152-.047.148-.048.143-.048.139-.05.136-.049.131-.05.126-.051.123-.051.118-.051.114-.052.11-.052.106-.052.101-.052.096-.052.092-.052.088-.052.083-.052.079-.052.074-.051.07-.052.065-.051.06-.05.056-.051.051-.049.023-.025.023-.024.021-.025.02-.024.019-.024.018-.024.017-.024.015-.023.014-.023.013-.024.012-.022.01-.023.01-.023.008-.022.006-.022.006-.022.004-.021.004-.022.001-.021.001-.021v-4.139l-.077.054-.08.054-.083.054-.085.052-.087.053-.09.051-.093.051-.095.051-.097.05-.1.049-.102.049-.105.048-.106.047-.109.047-.111.046-.114.045-.115.044-.118.044-.12.044-.122.042-.124.042-.126.041-.128.04-.13.039-.132.039-.134.038-.135.037-.138.036-.139.036-.142.035-.143.033-.144.033-.147.033-.148.031-.15.03-.151.03-.153.028-.154.028-.156.027-.158.026-.159.025-.161.024-.162.023-.163.022-.165.021-.166.02-.167.019-.169.018-.169.017-.171.016-.173.015-.173.014-.175.013-.175.012-.177.011-.178.009-.179.009-.179.007-.181.007-.182.005-.182.004-.184.003-.184.002h-.37l-.184-.002-.184-.003-.182-.004-.182-.005-.181-.007-.179-.007-.179-.009-.178-.009-.176-.011-.176-.012-.175-.013-.173-.014-.172-.015-.171-.016-.17-.017-.169-.018-.167-.019-.166-.02-.165-.021-.163-.022-.162-.023-.161-.024-.159-.025-.157-.026-.156-.027-.155-.028-.153-.028-.151-.03-.15-.03-.148-.031-.146-.033-.145-.033-.143-.033-.141-.035-.14-.036-.137-.036-.136-.037-.134-.038-.132-.039-.13-.039-.128-.04-.126-.041-.124-.042-.122-.043-.12-.043-.117-.044-.116-.044-.113-.046-.112-.046-.109-.046-.106-.047-.105-.048-.102-.049-.1-.049-.097-.05-.095-.051-.093-.051-.09-.051-.087-.053-.085-.052-.083-.054-.08-.054-.077-.054v4.139zm0-5.666v.011l.001.02.003.022.004.021.005.022.006.021.007.022.009.023.01.022.011.023.012.023.013.023.015.023.016.024.017.024.018.023.019.024.021.025.022.024.023.024.024.025.052.05.056.05.061.05.066.051.07.051.075.052.079.051.084.052.088.052.092.052.097.052.102.052.105.051.11.052.114.051.119.051.123.051.127.05.131.05.135.05.139.049.144.048.147.048.152.047.155.046.16.045.163.045.167.043.171.043.176.042.178.04.183.04.187.038.19.037.194.036.197.034.202.033.204.032.209.03.212.028.216.027.219.025.222.024.226.021.23.02.233.018.236.017.24.014.243.012.246.01.249.008.253.006.256.003.259.001.26-.001.257-.003.254-.006.25-.008.247-.01.244-.013.241-.014.237-.016.233-.018.231-.02.226-.022.224-.024.22-.025.216-.027.212-.029.21-.03.205-.032.202-.033.198-.035.194-.036.191-.037.187-.039.183-.039.179-.041.175-.042.172-.043.168-.044.163-.045.16-.045.155-.047.152-.047.148-.048.143-.049.139-.049.136-.049.131-.051.126-.05.123-.051.118-.052.114-.051.11-.052.106-.052.101-.052.096-.052.092-.052.088-.052.083-.052.079-.052.074-.052.07-.051.065-.051.06-.051.056-.05.051-.049.023-.025.023-.025.021-.024.02-.024.019-.024.018-.024.017-.024.015-.023.014-.024.013-.023.012-.023.01-.022.01-.023.008-.022.006-.022.006-.022.004-.022.004-.021.001-.021.001-.021v-4.153l-.077.054-.08.054-.083.053-.085.053-.087.053-.09.051-.093.051-.095.051-.097.05-.1.049-.102.048-.105.048-.106.048-.109.046-.111.046-.114.046-.115.044-.118.044-.12.043-.122.043-.124.042-.126.041-.128.04-.13.039-.132.039-.134.038-.135.037-.138.036-.139.036-.142.034-.143.034-.144.033-.147.032-.148.032-.15.03-.151.03-.153.028-.154.028-.156.027-.158.026-.159.024-.161.024-.162.023-.163.023-.165.021-.166.02-.167.019-.169.018-.169.017-.171.016-.173.015-.173.014-.175.013-.175.012-.177.01-.178.01-.179.009-.179.007-.181.006-.182.006-.182.004-.184.003-.184.001-.185.001-.185-.001-.184-.001-.184-.003-.182-.004-.182-.006-.181-.006-.179-.007-.179-.009-.178-.01-.176-.01-.176-.012-.175-.013-.173-.014-.172-.015-.171-.016-.17-.017-.169-.018-.167-.019-.166-.02-.165-.021-.163-.023-.162-.023-.161-.024-.159-.024-.157-.026-.156-.027-.155-.028-.153-.028-.151-.03-.15-.03-.148-.032-.146-.032-.145-.033-.143-.034-.141-.034-.14-.036-.137-.036-.136-.037-.134-.038-.132-.039-.13-.039-.128-.041-.126-.041-.124-.041-.122-.043-.12-.043-.117-.044-.116-.044-.113-.046-.112-.046-.109-.046-.106-.048-.105-.048-.102-.048-.1-.05-.097-.049-.095-.051-.093-.051-.09-.052-.087-.052-.085-.053-.083-.053-.08-.054-.077-.054v4.153zm8.74-8.179l-.257.004-.254.005-.25.008-.247.011-.244.012-.241.014-.237.016-.233.018-.231.021-.226.022-.224.023-.22.026-.216.027-.212.028-.21.031-.205.032-.202.033-.198.034-.194.036-.191.038-.187.038-.183.04-.179.041-.175.042-.172.043-.168.043-.163.045-.16.046-.155.046-.152.048-.148.048-.143.048-.139.049-.136.05-.131.05-.126.051-.123.051-.118.051-.114.052-.11.052-.106.052-.101.052-.096.052-.092.052-.088.052-.083.052-.079.052-.074.051-.07.052-.065.051-.06.05-.056.05-.051.05-.023.025-.023.024-.021.024-.02.025-.019.024-.018.024-.017.023-.015.024-.014.023-.013.023-.012.023-.01.023-.01.022-.008.022-.006.023-.006.021-.004.022-.004.021-.001.021-.001.021.001.021.001.021.004.021.004.022.006.021.006.023.008.022.01.022.01.023.012.023.013.023.014.023.015.024.017.023.018.024.019.024.02.025.021.024.023.024.023.025.051.05.056.05.06.05.065.051.07.052.074.051.079.052.083.052.088.052.092.052.096.052.101.052.106.052.11.052.114.052.118.051.123.051.126.051.131.05.136.05.139.049.143.048.148.048.152.048.155.046.16.046.163.045.168.043.172.043.175.042.179.041.183.04.187.038.191.038.194.036.198.034.202.033.205.032.21.031.212.028.216.027.22.026.224.023.226.022.231.021.233.018.237.016.241.014.244.012.247.011.25.008.254.005.257.004.26.001.26-.001.257-.004.254-.005.25-.008.247-.011.244-.012.241-.014.237-.016.233-.018.231-.021.226-.022.224-.023.22-.026.216-.027.212-.028.21-.031.205-.032.202-.033.198-.034.194-.036.191-.038.187-.038.183-.04.179-.041.175-.042.172-.043.168-.043.163-.045.16-.046.155-.046.152-.048.148-.048.143-.048.139-.049.136-.05.131-.05.126-.051.123-.051.118-.051.114-.052.11-.052.106-.052.101-.052.096-.052.092-.052.088-.052.083-.052.079-.052.074-.051.07-.052.065-.051.06-.05.056-.05.051-.05.023-.025.023-.024.021-.024.02-.025.019-.024.018-.024.017-.023.015-.024.014-.023.013-.023.012-.023.01-.023.01-.022.008-.022.006-.023.006-.021.004-.022.004-.021.001-.021.001-.021-.001-.021-.001-.021-.004-.021-.004-.022-.006-.021-.006-.023-.008-.022-.01-.022-.01-.023-.012-.023-.013-.023-.014-.023-.015-.024-.017-.023-.018-.024-.019-.024-.02-.025-.021-.024-.023-.024-.023-.025-.051-.05-.056-.05-.06-.05-.065-.051-.07-.052-.074-.051-.079-.052-.083-.052-.088-.052-.092-.052-.096-.052-.101-.052-.106-.052-.11-.052-.114-.052-.118-.051-.123-.051-.126-.051-.131-.05-.136-.05-.139-.049-.143-.048-.148-.048-.152-.048-.155-.046-.16-.046-.163-.045-.168-.043-.172-.043-.175-.042-.179-.041-.183-.04-.187-.038-.191-.038-.194-.036-.198-.034-.202-.033-.205-.032-.21-.031-.212-.028-.216-.027-.22-.026-.224-.023-.226-.022-.231-.021-.233-.018-.237-.016-.241-.014-.244-.012-.247-.011-.25-.008-.254-.005-.257-.004-.26-.001-.26.001z" transform="scale(.5)"></path></symbol></defs><defs><symbol height="24" width="24" id="clock"><path d="M12 2c5.514 0 10 4.486 10 10s-4.486 10-10 10-10-4.486-10-10 4.486-10 10-10zm0-2c-6.627 0-12 5.373-12 12s5.373 12 12 12 12-5.373 12-12-5.373-12-12-12zm5.848 12.459c.202.038.202.333.001.372-1.907.361-6.045 1.111-6.547 1.111-.719 0-1.301-.582-1.301-1.301 0-.512.77-5.447 1.125-7.445.034-.192.312-.181.343.014l.985 6.238 5.394 1.011z" transform="scale(.5)"></path></symbol></defs><defs><marker orient="auto" markerHeight="12" markerWidth="12" markerUnits="userSpaceOnUse" refY="5" refX="7.9" id="arrowhead"><path d="M 0 0 L 10 5 L 0 10 z"></path></marker></defs><defs><marker refY="4.5" refX="4" orient="auto" markerHeight="8" markerWidth="15" id="crosshead"><path style="stroke-dasharray: 0, 0;" d="M 1,2 L 6,7 M 6,2 L 1,7" stroke-width="1pt" stroke="#000000" fill="none"></path></marker></defs><defs><marker orient="auto" markerHeight="28" markerWidth="20" refY="7" refX="15.5" id="filled-head"><path d="M 18,7 L9,13 L14,7 L9,1 Z"></path></marker></defs><defs><marker orient="auto" markerHeight="40" markerWidth="60" refY="15" refX="15" id="sequencenumber"><circle r="6" cy="15" cx="15"></circle></marker></defs><defs><pattern id="pattern-stripe" width="5" height="5" patternTransform="rotate(45 0 0)" patternUnits="userSpaceOnUse"><line x1="0" y1="0" x2="0" y2="5"></line></pattern><marker id="arrowhead-selected" markerHeight="12" markerWidth="12" markerUsints="userSpaceOnUse" refY="5" refX="7.9" orient="auto"><path d="M 0 0 L 10 5 L 0 10 z" class="ve-arrowhead-selected"></path></marker><marker id="crosshead-selected" markerHeight="8" markerWidth="15" markerUsints="userSpaceOnUse" refY="4.5" refX="4" orient="auto"><path d="M 1,2 L 6,7 M 6,2 L 1,7" class="ve-arrowhead-selected"></path></marker><marker id="filled-head-selected" markerHeight="28" markerWidth="20" markerUsints="userSpaceOnUse" refY="7" refX="15.5" orient="auto"><path d="M 18,7 L9,13 L14,7 L9,1 Z" class="ve-arrowhead-selected"></path></marker></defs><g id="viewport-20240726223321826" class="svg-pan-zoom_viewport" transform="matrix(0.9632571996027806,0,0,0.9632571996027806,48.16285892104685,120.53475601501498)" style="transform: matrix(0.963257, 0, 0, 0.963257, 48.1629, 120.535);"><g><rect class="actor actor-bottom" ry="3" rx="3" name="Bundler" height="65" width="150" stroke="#666" fill="#eaeaea" y="453" x="757"></rect><text class="actor" alignment-baseline="central" dominant-baseline="central" style="text-anchor: middle; font-size: 16px; font-weight: 400;" y="485.5" x="832"><tspan dy="0" x="832">Bundler</tspan></text></g><g><rect class="actor actor-bottom" ry="3" rx="3" name="RP Service" height="65" width="150" stroke="#666" fill="#eaeaea" y="453" x="557"></rect><text class="actor" alignment-baseline="central" dominant-baseline="central" style="text-anchor: middle; font-size: 16px; font-weight: 400;" y="485.5" x="632"><tspan dy="0" x="632">RP Service</tspan></text></g><g><rect class="actor actor-bottom" ry="3" rx="3" name="Wallet" height="65" width="150" stroke="#666" fill="#eaeaea" y="453" x="201"></rect><text class="actor" alignment-baseline="central" dominant-baseline="central" style="text-anchor: middle; font-size: 16px; font-weight: 400;" y="485.5" x="276"><tspan dy="0" x="276">Wallet</tspan></text></g><g><rect class="actor actor-bottom" ry="3" rx="3" name="App" height="65" width="150" stroke="#666" fill="#eaeaea" y="453" x="0"></rect><text class="actor" alignment-baseline="central" dominant-baseline="central" style="text-anchor: middle; font-size: 16px; font-weight: 400;" y="485.5" x="75"><tspan dy="0" x="75">App</tspan></text></g><g><line stroke="#999" stroke-width="0.5px" class="200" y2="453" x2="832" y1="65" x1="832" data-id="Bundler" data-et="life-line" id="actor1085"></line><g data-id="Bundler" data-et="participant" id="root-1085"><rect class="actor actor-top" ry="3" rx="3" name="Bundler" height="65" width="150" stroke="#666" fill="#eaeaea" y="0" x="757"></rect><text class="actor" alignment-baseline="central" dominant-baseline="central" style="text-anchor: middle; font-size: 16px; font-weight: 400;" y="32.5" x="832"><tspan dy="0" x="832">Bundler</tspan></text></g></g><g><line stroke="#999" stroke-width="0.5px" class="200" y2="453" x2="632" y1="65" x1="632" data-id="RP Service" data-et="life-line" id="actor1084"></line><g data-id="RP Service" data-et="participant" id="root-1084"><rect class="actor actor-top" ry="3" rx="3" name="RP Service" height="65" width="150" stroke="#666" fill="#eaeaea" y="0" x="557"></rect><text class="actor" alignment-baseline="central" dominant-baseline="central" style="text-anchor: middle; font-size: 16px; font-weight: 400;" y="32.5" x="632"><tspan dy="0" x="632">RP Service</tspan></text></g></g><g><line stroke="#999" stroke-width="0.5px" class="200" y2="453" x2="276" y1="65" x1="276" data-id="Wallet" data-et="life-line" id="actor1083"></line><g data-id="Wallet" data-et="participant" id="root-1083"><rect class="actor actor-top" ry="3" rx="3" name="Wallet" height="65" width="150" stroke="#666" fill="#eaeaea" y="0" x="201"></rect><text class="actor" alignment-baseline="central" dominant-baseline="central" style="text-anchor: middle; font-size: 16px; font-weight: 400;" y="32.5" x="276"><tspan dy="0" x="276">Wallet</tspan></text></g></g><g><line stroke="#999" stroke-width="0.5px" class="200" y2="453" x2="75" y1="65" x1="75" data-id="App" data-et="life-line" id="actor1082"></line><g data-id="App" data-et="participant" id="root-1082"><rect class="actor actor-top" ry="3" rx="3" name="App" height="65" width="150" stroke="#666" fill="#eaeaea" y="0" x="0"></rect><text class="actor" alignment-baseline="central" dominant-baseline="central" style="text-anchor: middle; font-size: 16px; font-weight: 400;" y="32.5" x="75"><tspan dy="0" x="75">App</tspan></text></g></g><style>#graph-div{font-family:"trebuchet ms",verdana,arial,sans-serif;font-size:12px;fill:#333;}#graph-div .error-icon{fill:hsl(60, 90%, 100%);}#graph-div .error-text{fill:rgb(0, 0, 0);stroke:rgb(0, 0, 0);}#graph-div .edge-thickness-normal{stroke-width:2px;}#graph-div .edge-thickness-thick{stroke-width:3.5px;}#graph-div .edge-pattern-solid{stroke-dasharray:0;}#graph-div .edge-pattern-dashed{stroke-dasharray:3;}#graph-div .edge-pattern-dotted{stroke-dasharray:2;}#graph-div .marker{fill:#0b0b0b;stroke:#0b0b0b;}#graph-div .marker.cross{stroke:#0b0b0b;}#graph-div svg{font-family:"trebuchet ms",verdana,arial,sans-serif;font-size:12px;}#graph-div .actor{stroke:#BCBCFB;fill:#ECECFE;}#graph-div text.actor&gt;tspan{fill:#333;stroke:none;}#graph-div .actor-line{stroke:grey;}#graph-div .messageLine0{stroke-width:1.5;stroke-dasharray:none;stroke:#333;}#graph-div .messageLine1{stroke-width:1.5;stroke-dasharray:2,2;stroke:#333;}#graph-div #arrowhead path{fill:#333;stroke:#333;}#graph-div .sequenceNumber{fill:#f4f4f4;}#graph-div #sequencenumber{fill:#333;}#graph-div #crosshead path{fill:#333;stroke:#333;}#graph-div .messageText{fill:#333;stroke:none;}#graph-div .labelBox{stroke:#BCBCFB;fill:#ECECFE;}#graph-div .labelText,#graph-div .labelText&gt;tspan{fill:#333;stroke:none;}#graph-div .loopText,#graph-div .loopText&gt;tspan{fill:#333;stroke:none;}#graph-div .loopLine{stroke-width:2px;stroke-dasharray:2,2;stroke:#BCBCFB;fill:#BCBCFB;}#graph-div .note{stroke:hsl(52.6829268293, 60%, 73.9215686275%);fill:#fff5ad;}#graph-div .noteText,#graph-div .noteText&gt;tspan{fill:#333;stroke:none;}#graph-div .activation0{fill:#E9E9F1;stroke:hsl(240, 22.2222222222%, 82.9411764706%);}#graph-div .activation1{fill:#E9E9F1;stroke:hsl(240, 22.2222222222%, 82.9411764706%);}#graph-div .activation2{fill:#E9E9F1;stroke:hsl(240, 22.2222222222%, 82.9411764706%);}#graph-div .actorPopupMenu{position:absolute;}#graph-div .actorPopupMenuPanel{position:absolute;fill:#ECECFE;box-shadow:0px 8px 16px 0px rgba(0,0,0,0.2);filter:drop-shadow(3px 5px 2px rgb(0 0 0 / 0.4));}#graph-div .actor-man line{stroke:#BCBCFB;fill:#ECECFE;}#graph-div .actor-man circle,#graph-div line{stroke:#BCBCFB;fill:#ECECFE;stroke-width:2px;}#graph-div :root{--mermaid-font-family:"trebuchet ms",verdana,arial,sans-serif;}</style><g></g><g class="ve-hover-panel" data-id="App" draggable="true"><rect x="-5.000010575381317" y="-4.9999964591357315" width="160.00003166319524" height="75.00001477720693" rx="3" ry="3" stroke="#a7a6ff" stroke-width="1" stroke-linecap="round" stroke-linejoin="round" fill="rgba(167, 166, 255, 0.3)" pointer-events="none"></rect><rect x="-14.000010575381317" y="14.000003540864268" width="14" height="37.00001477720693" rx="3" ry="3" stroke="#0042EB" stroke-width="1" stroke-linecap="round" stroke-linejoin="round" fill="#0042EB" draggable="true" pointer-events="none" class="ve-handle"></rect><rect x="150.00002108781393" y="14.000003540864268" width="14" height="37.00001477720693" rx="3" ry="3" stroke="#0042EB" stroke-width="1" stroke-linecap="round" stroke-linejoin="round" fill="#0042EB" draggable="true" pointer-events="none" class="ve-handle"></rect></g><rect x="-25.000010575381317" y="-6" width="20" height="539" rx="3" ry="3" class="ve-actor-dropzone ve-dropzone" fill="url(#pattern-stripe)"></rect><g class="ve-hover-panel" data-id="Wallet" draggable="true"><rect x="195.9999773384686" y="-4.9999964591357315" width="159.99996827385604" height="75.00001477720693" rx="3" ry="3" stroke="#a7a6ff" stroke-width="1" stroke-linecap="round" stroke-linejoin="round" fill="rgba(167, 166, 255, 0.3)" pointer-events="none"></rect><rect x="186.9999773384686" y="14.000003540864268" width="14" height="37.00001477720693" rx="3" ry="3" stroke="#0042EB" stroke-width="1" stroke-linecap="round" stroke-linejoin="round" fill="#0042EB" draggable="true" pointer-events="none" class="ve-handle"></rect><rect x="350.9999456123246" y="14.000003540864268" width="14" height="37.00001477720693" rx="3" ry="3" stroke="#0042EB" stroke-width="1" stroke-linecap="round" stroke-linejoin="round" fill="#0042EB" draggable="true" pointer-events="none" class="ve-handle"></rect></g><rect x="166.00002108781393" y="-6" width="18.999956250654662" height="539" rx="3" ry="3" class="ve-actor-dropzone ve-dropzone" fill="url(#pattern-stripe)" data-id="App"></rect><g class="ve-hover-panel" data-id="RP Service" draggable="true"><rect x="552.0000846030506" y="-4.9999964591357315" width="159.99996827385604" height="75.00001477720693" rx="3" ry="3" stroke="#a7a6ff" stroke-width="1" stroke-linecap="round" stroke-linejoin="round" fill="rgba(167, 166, 255, 0.3)" pointer-events="none"></rect><rect x="543.0000846030506" y="14.000003540864268" width="14" height="37.00001477720693" rx="3" ry="3" stroke="#0042EB" stroke-width="1" stroke-linecap="round" stroke-linejoin="round" fill="#0042EB" draggable="true" pointer-events="none" class="ve-handle"></rect><rect x="707.0000528769067" y="14.000003540864268" width="14" height="37.00001477720693" rx="3" ry="3" stroke="#0042EB" stroke-width="1" stroke-linecap="round" stroke-linejoin="round" fill="#0042EB" draggable="true" pointer-events="none" class="ve-handle"></rect></g><rect x="366.9999456123246" y="-6" width="174.000138990726" height="539" rx="3" ry="3" class="ve-actor-dropzone ve-dropzone" fill="url(#pattern-stripe)" data-id="Wallet"></rect><g class="ve-hover-panel" data-id="Bundler" draggable="true"><rect x="752.0000423015252" y="-4.9999964591357315" width="159.99996827385604" height="75.00001477720693" rx="3" ry="3" stroke="#a7a6ff" stroke-width="1" stroke-linecap="round" stroke-linejoin="round" fill="rgba(167, 166, 255, 0.3)" pointer-events="none"></rect><rect x="743.0000423015252" y="14.000003540864268" width="14" height="37.00001477720693" rx="3" ry="3" stroke="#0042EB" stroke-width="1" stroke-linecap="round" stroke-linejoin="round" fill="#0042EB" draggable="true" pointer-events="none" class="ve-handle"></rect><rect x="907.0000105753813" y="14.000003540864268" width="14" height="37.00001477720693" rx="3" ry="3" stroke="#0042EB" stroke-width="1" stroke-linecap="round" stroke-linejoin="round" fill="#0042EB" draggable="true" pointer-events="none" class="ve-handle"></rect></g><rect x="723.0000528769067" y="-6" width="17.999989424618548" height="539" rx="3" ry="3" class="ve-actor-dropzone ve-dropzone" fill="url(#pattern-stripe)" data-id="RP Service"></rect><rect x="932.0000105753813" y="-6" width="25" height="539" rx="3" ry="3" data-id="Bundler" class="ve-actor-dropzone ve-dropzone"></rect><g data-id="iac3a502713" class="ve-message selection-controls"></g><g class="ve-message-selection-panel"><rect x="74.99997356154671" y="82.60618098304715" width="200.9999879138499" height="37.39383267682038" rx="3" ry="3" pointer-events="visiblePainted"></rect></g><g data-id="iac3a502713" class="ve-message"><text dy="1em" class="messageText" style="font-size: 16px; font-weight: 400;" alignment-baseline="middle" dominant-baseline="middle" text-anchor="middle" y="80" x="174">wallet_sendCalls()</text><line style="fill: none;" marker-end="url(#arrowhead)" stroke="none" stroke-width="2" data-to="Wallet" data-from="App" data-id="iac3a502713" data-et="message" class="messageLine0" y2="111" x2="272" y1="111" x1="76"></line></g><rect x="75" y="70.60618098304715" width="757" height="15" rx="3" ry="3" data-id="iac3a502713" class="ve-message-dropzone ve-dropzone"></rect><g data-id="i0c706937a7" class="ve-message selection-controls"></g><g class="ve-message-selection-panel"><rect x="275.9999614753966" y="128.60617632484346" width="356.00010726458197" height="37.39383267682038" rx="3" ry="3" pointer-events="visiblePainted"></rect></g><g data-id="i0c706937a7" class="ve-message"><text dy="1em" class="messageText" style="font-size: 16px; font-weight: 400;" alignment-baseline="middle" dominant-baseline="middle" text-anchor="middle" y="126" x="453">rp_getSignOptions(userOpHash, userId)</text><line style="fill: none;" marker-end="url(#arrowhead)" stroke="none" stroke-width="2" data-to="RP Service" data-from="Wallet" data-id="i0c706937a7" data-et="message" class="messageLine0" y2="157" x2="628" y1="157" x1="277"></line></g><rect x="75" y="116.60617632484346" width="757" height="15" rx="3" ry="3" data-id="i0c706937a7" class="ve-message-dropzone ve-dropzone"></rect><g data-id="i087258d9b5" class="ve-message selection-controls"></g><g class="ve-message-selection-panel"><rect x="275.9999614753966" y="174.6061716666398" width="356.00010726458197" height="37.39383267682038" rx="3" ry="3" pointer-events="visiblePainted"></rect></g><g data-id="i087258d9b5" class="ve-message"><text dy="1em" class="messageText" style="font-size: 16px; font-weight: 400;" alignment-baseline="middle" dominant-baseline="middle" text-anchor="middle" y="172" x="456">sign options</text><line style="fill: none;" marker-end="url(#arrowhead)" stroke="none" stroke-width="2" data-to="Wallet" data-from="RP Service" data-id="i087258d9b5" data-et="message" class="messageLine0" y2="203" x2="280" y1="203" x1="631"></line></g><rect x="75" y="162.6061716666398" width="757" height="15" rx="3" ry="3" data-id="i087258d9b5" class="ve-message-dropzone ve-dropzone"></rect><g data-id="iff6a3e91cb" class="ve-message selection-controls"></g><g class="ve-message-selection-panel"><rect x="275.9999614753966" y="220.60616700843613" width="356.00010726458197" height="37.39383267682038" rx="3" ry="3" pointer-events="visiblePainted"></rect></g><g data-id="iff6a3e91cb" class="ve-message"><text dy="1em" class="messageText" style="font-size: 16px; font-weight: 400;" alignment-baseline="middle" dominant-baseline="middle" text-anchor="middle" y="218" x="453">rp_getSignVerification(signingCred)</text><line style="fill: none;" marker-end="url(#arrowhead)" stroke="none" stroke-width="2" data-to="RP Service" data-from="Wallet" data-id="iff6a3e91cb" data-et="message" class="messageLine0" y2="249" x2="628" y1="249" x1="277"></line></g><rect x="75" y="208.60616700843613" width="757" height="15" rx="3" ry="3" data-id="iff6a3e91cb" class="ve-message-dropzone ve-dropzone"></rect><g data-id="i01058bf0c6" class="ve-message selection-controls"></g><g class="ve-message-selection-panel"><rect x="275.9999614753966" y="266.60616235023247" width="356.00010726458197" height="37.39383267682038" rx="3" ry="3" pointer-events="visiblePainted"></rect></g><g data-id="i01058bf0c6" class="ve-message"><text dy="1em" class="messageText" style="font-size: 16px; font-weight: 400;" alignment-baseline="middle" dominant-baseline="middle" text-anchor="middle" y="264" x="456">login verfication and signature</text><line style="fill: none;" marker-end="url(#arrowhead)" stroke="none" stroke-width="2" data-to="Wallet" data-from="RP Service" data-id="i01058bf0c6" data-et="message" class="messageLine0" y2="295" x2="280" y1="295" x1="631"></line></g><rect x="75" y="254.60616235023247" width="757" height="15" rx="3" ry="3" data-id="i01058bf0c6" class="ve-message-dropzone ve-dropzone"></rect><g data-id="i576c095e43" class="ve-message selection-controls"></g><g class="ve-message-selection-panel"><rect x="275.9999614753966" y="312.6061576920288" width="556.0000649630567" height="37.39383267682038" rx="3" ry="3" pointer-events="visiblePainted"></rect></g><g data-id="i576c095e43" class="ve-message"><text dy="1em" class="messageText" style="font-size: 16px; font-weight: 400;" alignment-baseline="middle" dominant-baseline="middle" text-anchor="middle" y="310" x="553">eth_sendUserOperation(userOp)</text><line style="fill: none;" marker-end="url(#arrowhead)" stroke="none" stroke-width="2" data-to="Bundler" data-from="Wallet" data-id="i576c095e43" data-et="message" class="messageLine0" y2="341" x2="828" y1="341" x1="277"></line></g><rect x="75" y="300.6061576920288" width="757" height="15" rx="3" ry="3" data-id="i576c095e43" class="ve-message-dropzone ve-dropzone"></rect><g data-id="i5fe42db01a" class="ve-message selection-controls"></g><g class="ve-message-selection-panel"><rect x="275.9999614753966" y="358.6061530338251" width="556.0000649630567" height="37.39383267682038" rx="3" ry="3" pointer-events="visiblePainted"></rect></g><g data-id="i5fe42db01a" class="ve-message"><text dy="1em" class="messageText" style="font-size: 16px; font-weight: 400;" alignment-baseline="middle" dominant-baseline="middle" text-anchor="middle" y="356" x="556">userOp hash</text><line style="fill: none;" marker-end="url(#arrowhead)" stroke="none" stroke-width="2" data-to="Wallet" data-from="Bundler" data-id="i5fe42db01a" data-et="message" class="messageLine0" y2="387" x2="280" y1="387" x1="831"></line></g><rect x="75" y="346.6061530338251" width="757" height="15" rx="3" ry="3" data-id="i5fe42db01a" class="ve-message-dropzone ve-dropzone"></rect><g data-id="i7c85f8e9ba" class="ve-message selection-controls"></g><g class="ve-message-selection-panel"><rect x="74.99997356154671" y="404.60614837562144" width="200.9999879138499" height="37.39383267682038" rx="3" ry="3" pointer-events="visiblePainted"></rect></g><g data-id="i7c85f8e9ba" class="ve-message"><text dy="1em" class="messageText" style="font-size: 16px; font-weight: 400;" alignment-baseline="middle" dominant-baseline="middle" text-anchor="middle" y="402" x="177">Calls identifier</text><line style="fill: none;" marker-end="url(#arrowhead)" stroke="none" stroke-width="2" data-to="App" data-from="Wallet" data-id="i7c85f8e9ba" data-et="message" class="messageLine0" y2="433" x2="79" y1="433" x1="275"></line></g><rect x="75" y="392.60614837562144" width="757" height="15" rx="3" ry="3" data-id="i7c85f8e9ba" class="ve-message-dropzone ve-dropzone"></rect><rect x="75" y="435.9999810524418" width="757" height="15" rx="3" ry="3" class="ve-message-dropzone ve-dropzone"></rect><g class="ve-selection-group"><rect x="-930" y="-930" width="767" height="378" rx="3" ry="3" class="ve-selection-rect" data-et="selection"></rect><rect x="-933" y="-923" width="6" height="6" rx="3" ry="3" class="ve-selection-square"></rect><rect x="-166" y="-933" width="6" height="6" rx="3" ry="3" class="ve-selection-square"></rect></g><g><rect x="822.0000264384533" y="60.0000183180712" width="20" height="397.9999965378216" rx="3" ry="3" data-id="Bundler" class="ve-lifeline-dropzone ve-dropzone"></rect><g class="ve-message-creation-panel" data-id="Bundler"><rect x="812.0000264384533" y="60.0000183180712" width="40" height="397.9999965378216" rx="3" ry="3"></rect><g data-id="iac3a502713" class="ve-add-message-btn" data-et="message-create"><circle cx="832.0000264384533" cy="80" r="10"></circle><rect x="828.0000264384533" y="79" width="8" height="2" rx="1" ry="1" class="ve-plus-icon"></rect><rect x="831.0000264384533" y="76" width="2" height="8" rx="1" ry="1" class="ve-plus-icon"></rect></g><g data-id="i0c706937a7" class="ve-add-message-btn" data-et="message-create"><circle cx="832.0000264384533" cy="126" r="10"></circle><rect x="828.0000264384533" y="125" width="8" height="2" rx="1" ry="1" class="ve-plus-icon"></rect><rect x="831.0000264384533" y="122" width="2" height="8" rx="1" ry="1" class="ve-plus-icon"></rect></g><g data-id="i087258d9b5" class="ve-add-message-btn" data-et="message-create"><circle cx="832.0000264384533" cy="172" r="10"></circle><rect x="828.0000264384533" y="171" width="8" height="2" rx="1" ry="1" class="ve-plus-icon"></rect><rect x="831.0000264384533" y="168" width="2" height="8" rx="1" ry="1" class="ve-plus-icon"></rect></g><g data-id="iff6a3e91cb" class="ve-add-message-btn" data-et="message-create"><circle cx="832.0000264384533" cy="218" r="10"></circle><rect x="828.0000264384533" y="217" width="8" height="2" rx="1" ry="1" class="ve-plus-icon"></rect><rect x="831.0000264384533" y="214" width="2" height="8" rx="1" ry="1" class="ve-plus-icon"></rect></g><g data-id="i01058bf0c6" class="ve-add-message-btn" data-et="message-create"><circle cx="832.0000264384533" cy="264" r="10"></circle><rect x="828.0000264384533" y="263" width="8" height="2" rx="1" ry="1" class="ve-plus-icon"></rect><rect x="831.0000264384533" y="260" width="2" height="8" rx="1" ry="1" class="ve-plus-icon"></rect></g><g data-id="i576c095e43" class="ve-add-message-btn" data-et="message-create"><circle cx="832.0000264384533" cy="310" r="10"></circle><rect x="828.0000264384533" y="309" width="8" height="2" rx="1" ry="1" class="ve-plus-icon"></rect><rect x="831.0000264384533" y="306" width="2" height="8" rx="1" ry="1" class="ve-plus-icon"></rect></g><g data-id="i5fe42db01a" class="ve-add-message-btn" data-et="message-create"><circle cx="832.0000264384533" cy="356" r="10"></circle><rect x="828.0000264384533" y="355" width="8" height="2" rx="1" ry="1" class="ve-plus-icon"></rect><rect x="831.0000264384533" y="352" width="2" height="8" rx="1" ry="1" class="ve-plus-icon"></rect></g><g data-id="i7c85f8e9ba" class="ve-add-message-btn" data-et="message-create"><circle cx="832.0000264384533" cy="402" r="10"></circle><rect x="828.0000264384533" y="401" width="8" height="2" rx="1" ry="1" class="ve-plus-icon"></rect><rect x="831.0000264384533" y="398" width="2" height="8" rx="1" ry="1" class="ve-plus-icon"></rect></g><g data-id="i7c85f8e9ba" class="ve-add-message-btn" data-et="message-create"><circle cx="832.0000264384533" cy="443" r="8"></circle><rect x="828.0000264384533" y="442" width="8" height="2" rx="1" ry="1" class="ve-plus-icon"></rect><rect x="831.0000264384533" y="439" width="2" height="8" rx="1" ry="1" class="ve-plus-icon"></rect></g></g></g><g><rect x="622.0000687399786" y="60.0000183180712" width="20" height="397.9999965378216" rx="3" ry="3" data-id="RP Service" class="ve-lifeline-dropzone ve-dropzone"></rect><g class="ve-message-creation-panel" data-id="RP Service"><rect x="612.0000687399786" y="60.0000183180712" width="40" height="397.9999965378216" rx="3" ry="3"></rect><g data-id="iac3a502713" class="ve-add-message-btn" data-et="message-create"><circle cx="632.0000687399786" cy="80" r="10"></circle><rect x="628.0000687399786" y="79" width="8" height="2" rx="1" ry="1" class="ve-plus-icon"></rect><rect x="631.0000687399786" y="76" width="2" height="8" rx="1" ry="1" class="ve-plus-icon"></rect></g><g data-id="i0c706937a7" class="ve-add-message-btn" data-et="message-create"><circle cx="632.0000687399786" cy="126" r="10"></circle><rect x="628.0000687399786" y="125" width="8" height="2" rx="1" ry="1" class="ve-plus-icon"></rect><rect x="631.0000687399786" y="122" width="2" height="8" rx="1" ry="1" class="ve-plus-icon"></rect></g><g data-id="i087258d9b5" class="ve-add-message-btn" data-et="message-create"><circle cx="632.0000687399786" cy="172" r="10"></circle><rect x="628.0000687399786" y="171" width="8" height="2" rx="1" ry="1" class="ve-plus-icon"></rect><rect x="631.0000687399786" y="168" width="2" height="8" rx="1" ry="1" class="ve-plus-icon"></rect></g><g data-id="iff6a3e91cb" class="ve-add-message-btn" data-et="message-create"><circle cx="632.0000687399786" cy="218" r="10"></circle><rect x="628.0000687399786" y="217" width="8" height="2" rx="1" ry="1" class="ve-plus-icon"></rect><rect x="631.0000687399786" y="214" width="2" height="8" rx="1" ry="1" class="ve-plus-icon"></rect></g><g data-id="i01058bf0c6" class="ve-add-message-btn" data-et="message-create"><circle cx="632.0000687399786" cy="264" r="10"></circle><rect x="628.0000687399786" y="263" width="8" height="2" rx="1" ry="1" class="ve-plus-icon"></rect><rect x="631.0000687399786" y="260" width="2" height="8" rx="1" ry="1" class="ve-plus-icon"></rect></g><g data-id="i576c095e43" class="ve-add-message-btn" data-et="message-create"><circle cx="632.0000687399786" cy="310" r="10"></circle><rect x="628.0000687399786" y="309" width="8" height="2" rx="1" ry="1" class="ve-plus-icon"></rect><rect x="631.0000687399786" y="306" width="2" height="8" rx="1" ry="1" class="ve-plus-icon"></rect></g><g data-id="i5fe42db01a" class="ve-add-message-btn" data-et="message-create"><circle cx="632.0000687399786" cy="356" r="10"></circle><rect x="628.0000687399786" y="355" width="8" height="2" rx="1" ry="1" class="ve-plus-icon"></rect><rect x="631.0000687399786" y="352" width="2" height="8" rx="1" ry="1" class="ve-plus-icon"></rect></g><g data-id="i7c85f8e9ba" class="ve-add-message-btn" data-et="message-create"><circle cx="632.0000687399786" cy="402" r="10"></circle><rect x="628.0000687399786" y="401" width="8" height="2" rx="1" ry="1" class="ve-plus-icon"></rect><rect x="631.0000687399786" y="398" width="2" height="8" rx="1" ry="1" class="ve-plus-icon"></rect></g><g data-id="i7c85f8e9ba" class="ve-add-message-btn" data-et="message-create"><circle cx="632.0000687399786" cy="443" r="8"></circle><rect x="628.0000687399786" y="442" width="8" height="2" rx="1" ry="1" class="ve-plus-icon"></rect><rect x="631.0000687399786" y="439" width="2" height="8" rx="1" ry="1" class="ve-plus-icon"></rect></g></g></g><g><rect x="265.9999614753966" y="60.0000183180712" width="20" height="397.9999965378216" rx="3" ry="3" data-id="Wallet" class="ve-lifeline-dropzone ve-dropzone"></rect><g class="ve-message-creation-panel" data-id="Wallet"><rect x="255.99996147539662" y="60.0000183180712" width="40" height="397.9999965378216" rx="3" ry="3"></rect><g data-id="iac3a502713" class="ve-add-message-btn" data-et="message-create"><circle cx="275.9999614753966" cy="80" r="10"></circle><rect x="271.9999614753966" y="79" width="8" height="2" rx="1" ry="1" class="ve-plus-icon"></rect><rect x="274.9999614753966" y="76" width="2" height="8" rx="1" ry="1" class="ve-plus-icon"></rect></g><g data-id="i0c706937a7" class="ve-add-message-btn" data-et="message-create"><circle cx="275.9999614753966" cy="126" r="10"></circle><rect x="271.9999614753966" y="125" width="8" height="2" rx="1" ry="1" class="ve-plus-icon"></rect><rect x="274.9999614753966" y="122" width="2" height="8" rx="1" ry="1" class="ve-plus-icon"></rect></g><g data-id="i087258d9b5" class="ve-add-message-btn" data-et="message-create"><circle cx="275.9999614753966" cy="172" r="10"></circle><rect x="271.9999614753966" y="171" width="8" height="2" rx="1" ry="1" class="ve-plus-icon"></rect><rect x="274.9999614753966" y="168" width="2" height="8" rx="1" ry="1" class="ve-plus-icon"></rect></g><g data-id="iff6a3e91cb" class="ve-add-message-btn" data-et="message-create"><circle cx="275.9999614753966" cy="218" r="10"></circle><rect x="271.9999614753966" y="217" width="8" height="2" rx="1" ry="1" class="ve-plus-icon"></rect><rect x="274.9999614753966" y="214" width="2" height="8" rx="1" ry="1" class="ve-plus-icon"></rect></g><g data-id="i01058bf0c6" class="ve-add-message-btn" data-et="message-create"><circle cx="275.9999614753966" cy="264" r="10"></circle><rect x="271.9999614753966" y="263" width="8" height="2" rx="1" ry="1" class="ve-plus-icon"></rect><rect x="274.9999614753966" y="260" width="2" height="8" rx="1" ry="1" class="ve-plus-icon"></rect></g><g data-id="i576c095e43" class="ve-add-message-btn" data-et="message-create"><circle cx="275.9999614753966" cy="310" r="10"></circle><rect x="271.9999614753966" y="309" width="8" height="2" rx="1" ry="1" class="ve-plus-icon"></rect><rect x="274.9999614753966" y="306" width="2" height="8" rx="1" ry="1" class="ve-plus-icon"></rect></g><g data-id="i5fe42db01a" class="ve-add-message-btn" data-et="message-create"><circle cx="275.9999614753966" cy="356" r="10"></circle><rect x="271.9999614753966" y="355" width="8" height="2" rx="1" ry="1" class="ve-plus-icon"></rect><rect x="274.9999614753966" y="352" width="2" height="8" rx="1" ry="1" class="ve-plus-icon"></rect></g><g data-id="i7c85f8e9ba" class="ve-add-message-btn" data-et="message-create"><circle cx="275.9999614753966" cy="402" r="10"></circle><rect x="271.9999614753966" y="401" width="8" height="2" rx="1" ry="1" class="ve-plus-icon"></rect><rect x="274.9999614753966" y="398" width="2" height="8" rx="1" ry="1" class="ve-plus-icon"></rect></g><g data-id="i7c85f8e9ba" class="ve-add-message-btn" data-et="message-create"><circle cx="275.9999614753966" cy="443" r="8"></circle><rect x="271.9999614753966" y="442" width="8" height="2" rx="1" ry="1" class="ve-plus-icon"></rect><rect x="274.9999614753966" y="439" width="2" height="8" rx="1" ry="1" class="ve-plus-icon"></rect></g></g></g><g><rect x="64.99997356154671" y="60.0000183180712" width="20" height="397.9999965378216" rx="3" ry="3" data-id="App" class="ve-lifeline-dropzone ve-dropzone"></rect><g class="ve-message-creation-panel" data-id="App"><rect x="54.99997356154671" y="60.0000183180712" width="40" height="397.9999965378216" rx="3" ry="3"></rect><g data-id="iac3a502713" class="ve-add-message-btn" data-et="message-create"><circle cx="74.99997356154671" cy="80" r="10"></circle><rect x="70.99997356154671" y="79" width="8" height="2" rx="1" ry="1" class="ve-plus-icon"></rect><rect x="73.99997356154671" y="76" width="2" height="8" rx="1" ry="1" class="ve-plus-icon"></rect></g><g data-id="i0c706937a7" class="ve-add-message-btn" data-et="message-create"><circle cx="74.99997356154671" cy="126" r="10"></circle><rect x="70.99997356154671" y="125" width="8" height="2" rx="1" ry="1" class="ve-plus-icon"></rect><rect x="73.99997356154671" y="122" width="2" height="8" rx="1" ry="1" class="ve-plus-icon"></rect></g><g data-id="i087258d9b5" class="ve-add-message-btn" data-et="message-create"><circle cx="74.99997356154671" cy="172" r="10"></circle><rect x="70.99997356154671" y="171" width="8" height="2" rx="1" ry="1" class="ve-plus-icon"></rect><rect x="73.99997356154671" y="168" width="2" height="8" rx="1" ry="1" class="ve-plus-icon"></rect></g><g data-id="iff6a3e91cb" class="ve-add-message-btn" data-et="message-create"><circle cx="74.99997356154671" cy="218" r="10"></circle><rect x="70.99997356154671" y="217" width="8" height="2" rx="1" ry="1" class="ve-plus-icon"></rect><rect x="73.99997356154671" y="214" width="2" height="8" rx="1" ry="1" class="ve-plus-icon"></rect></g><g data-id="i01058bf0c6" class="ve-add-message-btn" data-et="message-create"><circle cx="74.99997356154671" cy="264" r="10"></circle><rect x="70.99997356154671" y="263" width="8" height="2" rx="1" ry="1" class="ve-plus-icon"></rect><rect x="73.99997356154671" y="260" width="2" height="8" rx="1" ry="1" class="ve-plus-icon"></rect></g><g data-id="i576c095e43" class="ve-add-message-btn" data-et="message-create"><circle cx="74.99997356154671" cy="310" r="10"></circle><rect x="70.99997356154671" y="309" width="8" height="2" rx="1" ry="1" class="ve-plus-icon"></rect><rect x="73.99997356154671" y="306" width="2" height="8" rx="1" ry="1" class="ve-plus-icon"></rect></g><g data-id="i5fe42db01a" class="ve-add-message-btn" data-et="message-create"><circle cx="74.99997356154671" cy="356" r="10"></circle><rect x="70.99997356154671" y="355" width="8" height="2" rx="1" ry="1" class="ve-plus-icon"></rect><rect x="73.99997356154671" y="352" width="2" height="8" rx="1" ry="1" class="ve-plus-icon"></rect></g><g data-id="i7c85f8e9ba" class="ve-add-message-btn" data-et="message-create"><circle cx="74.99997356154671" cy="402" r="10"></circle><rect x="70.99997356154671" y="401" width="8" height="2" rx="1" ry="1" class="ve-plus-icon"></rect><rect x="73.99997356154671" y="398" width="2" height="8" rx="1" ry="1" class="ve-plus-icon"></rect></g><g data-id="i7c85f8e9ba" class="ve-add-message-btn" data-et="message-create"><circle cx="74.99997356154671" cy="443" r="8"></circle><rect x="70.99997356154671" y="442" width="8" height="2" rx="1" ry="1" class="ve-plus-icon"></rect><rect x="73.99997356154671" y="439" width="2" height="8" rx="1" ry="1" class="ve-plus-icon"></rect></g></g></g></g></svg>